<svg viewBox="0 0 168.387 50" fill="none" xmlns="http://www.w3.org/2000/svg">
<g id="Group 335712">
<path id="Vector" d="M57.8885 48.1671C57.3279 47.2076 56.8949 46.1199 56.5901 44.9049C56.2854 43.6896 56.133 42.4648 56.133 41.2289C56.133 39.993 56.2858 38.7686 56.5901 37.5533C56.8945 36.3379 57.3279 35.2507 57.8885 34.2907L58.6998 34.689C58.444 35.1279 58.2152 35.6103 58.0139 36.1363C57.8121 36.6623 57.6431 37.2088 57.5052 37.7754C57.3674 38.342 57.2615 38.9189 57.188 39.5056C57.1145 40.0932 57.0776 40.6676 57.0776 41.2289C57.0776 41.7902 57.1145 42.365 57.188 42.9522C57.2619 43.5393 57.3678 44.1162 57.5052 44.6828C57.6427 45.2494 57.8121 45.7955 58.0139 46.3215C58.2156 46.8475 58.444 47.3299 58.6998 47.7692L57.8885 48.1671ZM63.188 46.324V41.4231C63.188 41.1887 63.176 40.9513 63.1511 40.7107C63.1266 40.4714 63.0722 40.2513 62.9892 40.0526C62.9053 39.8534 62.7874 39.6904 62.635 39.5623C62.4826 39.4342 62.2833 39.371 62.0375 39.371C61.7917 39.371 61.5729 39.44 61.3811 39.5775C61.1893 39.7155 61.0274 39.9047 60.8945 40.1441C60.7616 40.3839 60.6582 40.6602 60.5847 40.9711C60.5108 41.2827 60.4739 41.6067 60.4739 41.9437V46.324H59.5002V40.6418C59.5002 40.4788 59.4982 40.3026 59.4932 40.1133C59.4882 39.9245 59.4832 39.7409 59.4782 39.5623C59.4733 39.3837 59.4683 39.2203 59.4633 39.0721C59.4583 38.9242 59.4513 38.8093 59.4413 38.7276H60.3851C60.405 38.9218 60.4195 39.1562 60.4295 39.4317C60.439 39.7077 60.444 39.968 60.444 40.2131H60.4739C60.6117 39.7023 60.8376 39.2868 61.1523 38.9649C61.467 38.643 61.8602 38.4824 62.3327 38.4824C62.7255 38.4824 63.0431 38.5691 63.284 38.7428C63.5248 38.9164 63.7095 39.1439 63.837 39.4243C63.9649 39.7052 64.0508 40.0218 64.0948 40.3736C64.1393 40.7263 64.1613 41.0762 64.1613 41.4227V46.3235H63.1876L63.188 46.324ZM66.853 36.3995C66.853 36.6142 66.7891 36.79 66.6612 36.9279C66.5333 37.0659 66.3813 37.1345 66.2041 37.1345C66.0172 37.1345 65.8623 37.0659 65.7394 36.9279C65.6165 36.79 65.5555 36.6142 65.5555 36.3995C65.5555 36.195 65.6165 36.0222 65.7394 35.8789C65.8623 35.736 66.0172 35.6641 66.2041 35.6641C66.3909 35.6641 66.5458 35.736 66.6691 35.8789C66.792 36.0222 66.853 36.1954 66.853 36.3995ZM65.7174 46.324V38.7276H66.6911V46.324H65.7174ZM73.343 42.5412C73.343 43.1332 73.2935 43.6744 73.1951 44.1646C73.0967 44.6549 72.9494 45.0786 72.7526 45.4358C72.5557 45.7931 72.3149 46.0714 72.0297 46.2706C71.7449 46.4697 71.4102 46.5691 71.027 46.5691C70.5844 46.5691 70.2132 46.4258 69.9134 46.14C69.6136 45.8542 69.4048 45.4818 69.2869 45.0224H69.2719V50H68.2983V38.7276H69.242V40.0907H69.2719C69.3899 39.621 69.5867 39.2355 69.862 38.9341C70.1368 38.6331 70.5254 38.4824 71.027 38.4824C71.3907 38.4824 71.7179 38.5847 72.0077 38.7888C72.2975 38.9932 72.5412 39.2741 72.7376 39.6313C72.934 39.9885 73.0843 40.4147 73.1877 40.9103C73.2906 41.4055 73.343 41.9491 73.343 42.5412ZM72.3403 42.5104C72.3403 42.0714 72.3104 41.6604 72.2514 41.2774C72.1924 40.8947 72.0986 40.56 71.9711 40.2743C71.8437 39.9885 71.6834 39.7635 71.4916 39.6005C71.2998 39.4375 71.0714 39.3554 70.8061 39.3554C70.5408 39.3554 70.312 39.4371 70.1202 39.6005C69.9284 39.7639 69.7664 39.9885 69.6336 40.2743C69.5007 40.56 69.4023 40.8943 69.3384 41.2774C69.2744 41.6604 69.2425 42.0714 69.2425 42.5104C69.2425 42.96 69.2744 43.3784 69.3384 43.766C69.4023 44.154 69.5007 44.4886 69.6336 44.7695C69.7664 45.0503 69.9309 45.2724 70.1273 45.4358C70.3236 45.5993 70.5499 45.6806 70.8061 45.6806C71.0718 45.6806 71.2998 45.5993 71.4916 45.4358C71.6834 45.2724 71.8433 45.0503 71.9711 44.7695C72.099 44.4886 72.1924 44.1544 72.2514 43.766C72.3104 43.3784 72.3403 42.96 72.3403 42.5104ZM79.3712 42.5412C79.3712 43.1439 79.3123 43.6896 79.1944 44.1798C79.076 44.6701 78.9091 45.0938 78.6924 45.451C78.4765 45.8087 78.2078 46.0846 77.889 46.278C77.5688 46.4718 77.2126 46.5691 76.8194 46.5691C76.4262 46.5691 76.0721 46.4718 75.7577 46.278C75.4426 46.0842 75.1748 45.8083 74.9539 45.451C74.7326 45.0934 74.5628 44.6697 74.4449 44.1798C74.327 43.69 74.268 43.1439 74.268 42.5412C74.268 41.9384 74.3249 41.3874 74.4378 40.8869C74.5508 40.3864 74.7156 39.9577 74.9319 39.6005C75.1478 39.2429 75.4156 38.9674 75.7357 38.7736C76.055 38.5793 76.4163 38.4824 76.8198 38.4824C77.2126 38.4824 77.5693 38.5793 77.8894 38.7736C78.2087 38.9678 78.4769 39.2433 78.6928 39.6005C78.9091 39.9581 79.0764 40.3868 79.1948 40.8869C79.3127 41.3874 79.3716 41.9388 79.3716 42.5412H79.3712ZM78.3685 42.5178C78.3685 42.0698 78.3361 41.6522 78.2726 41.265C78.2082 40.8778 78.1123 40.5444 77.9849 40.2644C77.8566 39.9844 77.6972 39.7627 77.5053 39.5997C77.3135 39.4367 77.0847 39.355 76.8194 39.355C76.5541 39.355 76.3228 39.4367 76.126 39.5997C75.9292 39.7627 75.7694 39.9844 75.6465 40.2644C75.5232 40.5444 75.4302 40.8778 75.3662 41.265C75.3023 41.6522 75.2703 42.0698 75.2703 42.5178C75.2703 42.9657 75.3023 43.3788 75.3662 43.7557C75.4302 44.1322 75.5232 44.4636 75.6465 44.7489C75.7694 45.0343 75.9292 45.2556 76.126 45.4137C76.3228 45.5713 76.5537 45.6502 76.8194 45.6502C77.0851 45.6502 77.316 45.5713 77.5128 45.4137C77.7096 45.2556 77.8695 45.0343 77.9923 44.7489C78.1152 44.4636 78.2082 44.1322 78.2726 43.7557C78.3361 43.3788 78.3685 42.9661 78.3685 42.5178ZM82.8373 46.5691C82.4246 46.5691 82.0605 46.4693 81.7462 46.2706C81.431 46.0714 81.1682 45.7955 80.9569 45.4436C80.7447 45.0914 80.5857 44.6676 80.4773 44.1724C80.3689 43.6773 80.315 43.1287 80.315 42.526C80.315 41.9232 80.3689 41.3751 80.4773 40.8799C80.5853 40.3843 80.7472 39.9585 80.9639 39.6009C81.1798 39.2433 81.4456 38.9678 81.7603 38.774C82.075 38.5802 82.4391 38.4829 82.8518 38.4829C83.2255 38.4829 83.5452 38.5547 83.8105 38.6976C84.0758 38.8405 84.2872 39.0092 84.445 39.203L83.9284 39.9384C83.8105 39.7647 83.6627 39.6268 83.4858 39.5249C83.309 39.4231 83.1022 39.3718 82.8664 39.3718C82.6006 39.3718 82.3723 39.451 82.1804 39.6091C81.9886 39.7676 81.8288 39.9869 81.7009 40.2681C81.573 40.5494 81.4771 40.8807 81.4132 41.2634C81.3492 41.6461 81.3173 42.0673 81.3173 42.5268C81.3173 42.9764 81.3492 43.3899 81.4132 43.7676C81.4771 44.1453 81.573 44.4722 81.7009 44.7477C81.8288 45.0236 81.9936 45.2379 82.195 45.3911C82.3968 45.5447 82.6347 45.6214 82.9104 45.6214C83.1562 45.6214 83.37 45.5676 83.5523 45.4605C83.7341 45.3533 83.889 45.2026 84.0169 45.0088L84.4595 45.7902C84.0659 46.3108 83.5249 46.5715 82.8369 46.5715L82.8373 46.5691ZM88.543 46.324C88.533 46.2427 88.5255 46.14 88.521 46.0177C88.5156 45.8953 88.511 45.7647 88.506 45.6272C88.501 45.4892 88.4989 45.3566 88.4989 45.2289V44.8996H88.4691C88.2233 45.9823 87.6333 46.5235 86.6991 46.5235C86.4923 46.5235 86.2859 46.4824 86.0796 46.4007C85.8728 46.3194 85.686 46.1868 85.5187 46.0029C85.3517 45.8189 85.2139 45.5865 85.1059 45.3057C84.9976 45.0253 84.9436 44.6857 84.9436 44.287C84.9436 43.736 85.0374 43.2917 85.2239 42.9546C85.4103 42.6175 85.6465 42.3523 85.9318 42.1581C86.2166 41.9639 86.5292 41.8341 86.8685 41.7672C87.2073 41.7007 87.5299 41.6678 87.8346 41.6678H88.4101V41.2696C88.4101 40.606 88.2922 40.1211 88.0563 39.8148C87.8201 39.5081 87.5004 39.355 87.0976 39.355C86.8224 39.355 86.5666 39.4313 86.3308 39.5845C86.0945 39.7376 85.8927 39.9318 85.7258 40.1667L85.2093 39.5385C85.4356 39.2014 85.7304 38.9411 86.0941 38.7571C86.4578 38.5736 86.822 38.4816 87.1857 38.4816C87.9525 38.4816 88.4985 38.7419 88.8228 39.263C89.1475 39.7836 89.3098 40.5444 89.3098 41.5447V44.6996C89.3098 44.8019 89.3119 44.9292 89.3169 45.0823C89.3219 45.2355 89.3268 45.3911 89.3318 45.5496C89.3368 45.7081 89.3439 45.8559 89.3538 45.9938C89.3638 46.1314 89.3737 46.2414 89.3837 46.3227H88.543V46.324ZM88.425 42.4644H87.835C87.5992 42.4644 87.3629 42.487 87.1271 42.5334C86.8913 42.5793 86.682 42.666 86.5006 42.7937C86.3183 42.9214 86.1684 43.0971 86.0505 43.3221C85.9326 43.5463 85.8736 43.8374 85.8736 44.195C85.8736 44.7259 85.9866 45.109 86.2129 45.3435C86.4387 45.5783 86.6845 45.6962 86.9503 45.6962C87.2251 45.6962 87.4589 45.6095 87.6507 45.4358C87.8425 45.2622 87.9949 45.0429 88.1078 44.7768C88.2207 44.5116 88.3017 44.2205 88.3515 43.9039C88.4005 43.5874 88.4254 43.2811 88.4254 42.985L88.425 42.4644ZM90.8228 46.324V34.7452H91.7964V46.324H90.8228ZM94.5247 36.3995C94.5247 36.6142 94.4608 36.79 94.3329 36.9279C94.205 37.0659 94.053 37.1345 93.8758 37.1345C93.6889 37.1345 93.534 37.0659 93.4111 36.9279C93.2882 36.79 93.2272 36.6142 93.2272 36.3995C93.2272 36.195 93.2882 36.0222 93.4111 35.8789C93.534 35.736 93.6889 35.6641 93.8758 35.6641C94.0626 35.6641 94.2175 35.736 94.3408 35.8789C94.4637 36.0222 94.5247 36.1954 94.5247 36.3995ZM93.3891 46.324V38.7276H94.3628V46.324H93.3891ZM97.608 38.9649C97.9165 38.643 98.3155 38.4824 98.8054 38.4824C99.0695 38.4824 99.2974 38.5309 99.4884 38.6282C99.6794 38.7255 99.8409 38.8528 99.9733 39.0109C100.106 39.1694 100.208 39.3554 100.282 39.5701C100.355 39.7849 100.412 40.0041 100.451 40.2291H100.48C100.539 40.0045 100.622 39.7877 100.73 39.5779C100.838 39.3685 100.972 39.1825 101.134 39.0187C101.296 38.8557 101.482 38.7255 101.692 38.6282C101.903 38.5309 102.141 38.4824 102.405 38.4824C102.797 38.4824 103.11 38.5691 103.345 38.7428C103.581 38.9164 103.764 39.1439 103.896 39.4243C104.029 39.7052 104.117 40.0218 104.161 40.3736C104.205 40.7263 104.227 41.0762 104.227 41.4227V46.3235H103.253V41.4227C103.253 41.1883 103.241 40.9509 103.216 40.7103C103.191 40.471 103.14 40.2509 103.061 40.0521C102.982 39.8534 102.867 39.69 102.715 39.5619C102.562 39.4342 102.358 39.3706 102.103 39.3706C101.867 39.3706 101.653 39.4395 101.461 39.5771C101.269 39.715 101.109 39.9043 100.981 40.1437C100.854 40.3835 100.755 40.6598 100.686 40.9706C100.617 41.2823 100.583 41.6062 100.583 41.9433V46.3235H99.6096V41.4227C99.6096 41.1883 99.5976 40.9481 99.5731 40.7029C99.5486 40.4582 99.4996 40.2361 99.4265 40.0365C99.3531 39.8374 99.2405 39.6769 99.089 39.5545C98.9374 39.4317 98.7398 39.3706 98.4952 39.3706C98.2507 39.3706 98.0352 39.4395 97.8496 39.5771C97.6636 39.715 97.505 39.9043 97.373 40.1437C97.2409 40.3835 97.1409 40.6598 97.0724 40.9706C97.0038 41.2823 96.9698 41.6062 96.9698 41.9433V46.3235H95.9962V40.6413C95.9962 40.4783 95.9941 40.3022 95.9891 40.1129C95.9841 39.924 95.9792 39.7405 95.9742 39.5619C95.9692 39.3833 95.9642 39.2199 95.9592 39.0717C95.9542 38.9238 95.9472 38.8089 95.9372 38.7272H96.8959C96.9158 38.9214 96.93 39.1558 96.9399 39.4313C96.9499 39.7072 96.9549 39.9676 96.9549 40.2127H96.9847C97.0923 39.7019 97.3003 39.2864 97.6088 38.9645L97.608 38.9649ZM108.9 46.324C108.89 46.2427 108.883 46.14 108.878 46.0177C108.873 45.8953 108.868 45.7647 108.863 45.6272C108.858 45.4892 108.856 45.3566 108.856 45.2289V44.8996H108.826C108.58 45.9823 107.99 46.5235 107.056 46.5235C106.849 46.5235 106.643 46.4824 106.437 46.4007C106.23 46.3194 106.043 46.1868 105.876 46.0029C105.709 45.8189 105.571 45.5865 105.463 45.3057C105.355 45.0253 105.301 44.6857 105.301 44.287C105.301 43.736 105.395 43.2917 105.581 42.9546C105.767 42.6175 106.004 42.3523 106.289 42.1581C106.574 41.9639 106.886 41.8341 107.226 41.7672C107.564 41.7007 107.887 41.6678 108.192 41.6678H108.767V41.2696C108.767 40.606 108.649 40.1211 108.413 39.8148C108.177 39.5081 107.858 39.355 107.455 39.355C107.18 39.355 106.924 39.4313 106.688 39.5845C106.452 39.7376 106.25 39.9318 106.083 40.1667L105.566 39.5385C105.793 39.2014 106.088 38.9411 106.451 38.7571C106.815 38.5736 107.179 38.4816 107.543 38.4816C108.31 38.4816 108.856 38.7419 109.18 39.263C109.505 39.7836 109.667 40.5444 109.667 41.5447V44.6996C109.667 44.8019 109.669 44.9292 109.674 45.0823C109.679 45.2355 109.684 45.3911 109.689 45.5496C109.694 45.7081 109.701 45.8559 109.711 45.9938C109.721 46.1314 109.731 46.2414 109.741 46.3227H108.9V46.324ZM108.782 42.4644H108.192C107.956 42.4644 107.72 42.487 107.484 42.5334C107.248 42.5793 107.039 42.666 106.858 42.7937C106.675 42.9214 106.526 43.0971 106.408 43.3221C106.29 43.5463 106.231 43.8374 106.231 44.195C106.231 44.7259 106.344 45.109 106.57 45.3435C106.796 45.5783 107.042 45.6962 107.307 45.6962C107.582 45.6962 107.816 45.6095 108.008 45.4358C108.2 45.2622 108.352 45.0429 108.465 44.7768C108.578 44.5116 108.659 44.2205 108.709 43.9039C108.758 43.5874 108.783 43.2811 108.783 42.985V42.4644H108.782ZM116.222 42.4952C116.222 43.0873 116.17 43.6313 116.067 44.1261C115.964 44.6216 115.814 45.0503 115.617 45.4124C115.42 45.7754 115.18 46.0583 114.895 46.2628C114.61 46.4668 114.28 46.5691 113.906 46.5691C113.405 46.5691 113.016 46.418 112.741 46.1174C112.466 45.8161 112.269 45.4305 112.151 44.9608H112.121V46.324H111.177V34.7452H112.151V40.0292H112.166C112.284 39.5697 112.493 39.1973 112.793 38.9115C113.092 38.6257 113.464 38.4824 113.906 38.4824C114.28 38.4824 114.612 38.5822 114.902 38.781C115.192 38.9801 115.435 39.256 115.632 39.6079C115.828 39.9598 115.976 40.3814 116.074 40.8717C116.172 41.3619 116.222 41.9031 116.222 42.4952ZM115.219 42.5256C115.219 42.087 115.19 41.6736 115.131 41.2856C115.072 40.8976 114.978 40.5605 114.85 40.2747C114.723 39.9889 114.563 39.7639 114.371 39.6009C114.179 39.4379 113.951 39.3558 113.685 39.3558C113.429 39.3558 113.203 39.4375 113.006 39.6009C112.81 39.7643 112.646 39.9889 112.513 40.2747C112.38 40.5605 112.281 40.8976 112.218 41.2856C112.154 41.6736 112.122 42.0875 112.122 42.5256C112.122 42.9752 112.154 43.3911 112.218 43.7742C112.281 44.1568 112.38 44.4886 112.513 44.7695C112.646 45.0503 112.808 45.2724 112.999 45.4358C113.191 45.5993 113.42 45.6806 113.685 45.6806C113.951 45.6806 114.179 45.5993 114.371 45.4358C114.563 45.2724 114.722 45.0503 114.85 44.7695C114.978 44.4886 115.072 44.1568 115.131 43.7742C115.19 43.3911 115.219 42.9752 115.219 42.5256ZM117.219 42.7247V41.867H119.431V42.7247H117.219ZM123.729 46.324C123.719 46.2427 123.712 46.14 123.707 46.0177C123.702 45.8953 123.697 45.7647 123.692 45.6272C123.687 45.4892 123.685 45.3566 123.685 45.2289V44.8996H123.655C123.41 45.9823 122.82 46.5235 121.885 46.5235C121.679 46.5235 121.472 46.4824 121.266 46.4007C121.059 46.3194 120.872 46.1868 120.705 46.0029C120.538 45.8189 120.4 45.5865 120.292 45.3057C120.184 45.0253 120.13 44.6857 120.13 44.287C120.13 43.736 120.224 43.2917 120.41 42.9546C120.597 42.6175 120.833 42.3523 121.118 42.1581C121.403 41.9639 121.716 41.8341 122.055 41.7672C122.394 41.7007 122.716 41.6678 123.021 41.6678H123.596V41.2696C123.596 40.606 123.479 40.1211 123.243 39.8148C123.006 39.5081 122.687 39.355 122.284 39.355C122.009 39.355 121.753 39.4313 121.517 39.5845C121.281 39.7376 121.079 39.9318 120.912 40.1667L120.396 39.5385C120.622 39.2014 120.917 38.9411 121.281 38.7571C121.644 38.5736 122.008 38.4816 122.372 38.4816C123.139 38.4816 123.685 38.7419 124.009 39.263C124.334 39.7836 124.496 40.5444 124.496 41.5447V44.6996C124.496 44.8019 124.498 44.9292 124.503 45.0823C124.508 45.2355 124.513 45.3911 124.518 45.5496C124.523 45.7081 124.53 45.8559 124.54 45.9938C124.55 46.1314 124.56 46.2414 124.57 46.3227H123.729V46.324ZM123.611 42.4644H123.021C122.786 42.4644 122.549 42.487 122.314 42.5334C122.078 42.5793 121.868 42.666 121.687 42.7937C121.505 42.9214 121.355 43.0971 121.237 43.3221C121.119 43.5463 121.06 43.8374 121.06 44.195C121.06 44.7259 121.173 45.109 121.399 45.3435C121.625 45.5783 121.871 45.6962 122.137 45.6962C122.411 45.6962 122.645 45.6095 122.837 45.4358C123.029 45.2622 123.181 45.0429 123.294 44.7768C123.407 44.5116 123.488 44.2205 123.538 43.9039C123.587 43.5874 123.612 43.2811 123.612 42.985V42.4644H123.611ZM129.121 46.324C129.111 46.2427 129.103 46.14 129.099 46.0177C129.093 45.8953 129.089 45.7647 129.084 45.6272C129.079 45.4892 129.077 45.3566 129.077 45.2289V44.8996H129.047C128.801 45.9823 128.211 46.5235 127.277 46.5235C127.07 46.5235 126.864 46.4824 126.657 46.4007C126.451 46.3194 126.264 46.1868 126.096 46.0029C125.929 45.8189 125.792 45.5865 125.684 45.3057C125.575 45.0253 125.521 44.6857 125.521 44.287C125.521 43.736 125.615 43.2917 125.802 42.9546C125.988 42.6175 126.224 42.3523 126.51 42.1581C126.794 41.9639 127.107 41.8341 127.446 41.7672C127.785 41.7007 128.108 41.6678 128.412 41.6678H128.988V41.2696C128.988 40.606 128.87 40.1211 128.634 39.8148C128.398 39.5081 128.078 39.355 127.675 39.355C127.4 39.355 127.144 39.4313 126.909 39.5845C126.672 39.7376 126.47 39.9318 126.304 40.1667L125.787 39.5385C126.013 39.2014 126.308 38.9411 126.672 38.7571C127.036 38.5736 127.4 38.4816 127.763 38.4816C128.53 38.4816 129.076 38.7419 129.401 39.263C129.725 39.7836 129.888 40.5444 129.888 41.5447V44.6996C129.888 44.8019 129.89 44.9292 129.895 45.0823C129.9 45.2355 129.905 45.3911 129.91 45.5496C129.915 45.7081 129.922 45.8559 129.932 45.9938C129.942 46.1314 129.951 46.2414 129.961 46.3227H129.121V46.324ZM129.003 42.4644H128.413C128.177 42.4644 127.941 42.487 127.705 42.5334C127.469 42.5793 127.26 42.666 127.078 42.7937C126.896 42.9214 126.746 43.0971 126.628 43.3221C126.51 43.5463 126.451 43.8374 126.451 44.195C126.451 44.7259 126.564 45.109 126.791 45.3435C127.016 45.5783 127.262 45.6962 127.528 45.6962C127.803 45.6962 128.037 45.6095 128.228 45.4358C128.42 45.2622 128.573 45.0429 128.686 44.7768C128.798 44.5116 128.879 44.2205 128.929 43.9039C128.978 43.5874 129.003 43.2811 129.003 42.985L129.003 42.4644ZM135.085 46.324V41.4231C135.085 41.1887 135.073 40.9513 135.048 40.7107C135.024 40.4714 134.972 40.2513 134.894 40.0526C134.815 39.8538 134.7 39.6904 134.547 39.5623C134.394 39.4342 134.195 39.371 133.949 39.371C133.704 39.371 133.485 39.44 133.293 39.5775C133.101 39.7155 132.936 39.9047 132.799 40.1441C132.661 40.3839 132.555 40.6602 132.482 40.9711C132.408 41.2827 132.371 41.6067 132.371 41.9437V46.324H131.398V34.7452H132.371V40.1671H132.4C132.528 39.6769 132.748 39.2737 133.062 38.9571C133.375 38.6405 133.767 38.482 134.237 38.482C134.629 38.482 134.945 38.5687 135.185 38.7424C135.425 38.916 135.608 39.1435 135.735 39.4239C135.863 39.7048 135.949 40.0214 135.993 40.3732C136.037 40.7259 136.059 41.0758 136.059 41.4223V46.3231H135.085L135.085 46.324ZM138.547 38.7276V43.6284C138.547 43.8633 138.559 44.1006 138.584 44.3408C138.608 44.5806 138.662 44.8002 138.746 44.999C138.829 45.1981 138.945 45.3619 139.092 45.4892C139.24 45.6169 139.441 45.6806 139.697 45.6806C139.943 45.6806 140.162 45.6116 140.354 45.474C140.546 45.3361 140.708 45.1472 140.84 44.9074C140.973 44.6676 141.076 44.3921 141.15 44.0805C141.224 43.7688 141.261 43.4449 141.261 43.1078V38.7276H142.235V44.4094C142.235 44.5732 142.237 44.7489 142.242 44.9378C142.247 45.1271 142.252 45.311 142.257 45.4892C142.262 45.6682 142.266 45.8337 142.272 45.9869C142.276 46.14 142.284 46.2525 142.294 46.324H141.35C141.33 46.1302 141.315 45.8953 141.306 45.6198C141.296 45.3439 141.291 45.0836 141.291 44.8384H141.261C141.123 45.3492 140.897 45.7647 140.583 46.0866C140.267 46.4081 139.875 46.5691 139.402 46.5691C139.009 46.5691 138.692 46.4824 138.451 46.3088C138.21 46.1351 138.025 45.908 137.898 45.6272C137.77 45.3463 137.684 45.0326 137.64 44.6853C137.596 44.3379 137.574 43.986 137.574 43.6284V38.7276H138.547ZM143.752 46.3215C143.954 45.7959 144.123 45.2494 144.261 44.6828C144.399 44.1162 144.505 43.5393 144.578 42.9522C144.652 42.365 144.689 41.7906 144.689 41.2289C144.689 40.6672 144.652 40.0932 144.578 39.5056C144.504 38.9189 144.398 38.342 144.261 37.7754C144.123 37.2088 143.954 36.6627 143.752 36.1363C143.55 35.6108 143.322 35.1279 143.066 34.689L143.878 34.2907C144.438 35.2503 144.871 36.3379 145.176 37.5533C145.481 38.7686 145.633 39.9934 145.633 41.2289C145.633 42.4644 145.48 43.6896 145.176 44.9049C144.871 46.1199 144.438 47.2071 143.878 48.1671L143.066 47.7692C143.322 47.3299 143.551 46.8475 143.752 46.3215ZM57.6642 8.19011C58.855 8.19011 59.8071 9.03183 59.8071 10.1753C59.8071 11.3188 58.855 12.1601 57.6642 12.1601C56.5075 12.1601 55.5206 11.3192 55.5206 10.1753C55.5206 9.03142 56.5075 8.19011 57.6642 8.19011ZM59.2291 16.7748C59.2291 15.9331 58.5486 15.2273 57.6642 15.2273C56.8135 15.2273 56.133 15.9331 56.133 16.7748V29.7278C56.133 30.5687 56.8135 31.2757 57.6642 31.2757C58.5486 31.2757 59.2291 30.5687 59.2291 29.7278V16.7748ZM62.6022 29.7282C62.6022 30.5691 63.2827 31.2761 64.133 31.2761C65.0182 31.2761 65.6983 30.5691 65.6983 29.7282V22.6294C65.6983 19.332 67.9101 17.9865 70.121 17.9865C72.197 17.9865 73.5576 19.6013 73.5576 22.1922V29.7282C73.5576 30.5691 74.2373 31.2761 75.0884 31.2761C75.9728 31.2761 76.6533 30.5691 76.6533 29.7282V22.6294C76.6533 20.0049 78.2523 18.0201 80.8722 18.0538C83.152 18.0538 84.513 19.635 84.513 22.2258V29.7282C84.513 30.5691 85.1935 31.2761 86.0443 31.2761C86.9287 31.2761 87.6083 30.5691 87.6083 29.7282V22.0242C87.6083 17.6169 85.4655 15.0597 81.485 15.0597C79.9197 15.0597 77.4364 15.4962 75.9733 18.2891C75.2246 16.5736 73.8296 15.4634 71.8229 15.1603C71.2782 15.0597 70.7002 15.0261 70.0874 15.0597C68.7949 15.1603 66.5499 16.0012 65.6987 17.7512V16.7752C65.6987 15.9335 65.0183 15.2277 64.1335 15.2277C63.2831 15.2277 62.6026 15.9335 62.6026 16.7752V29.7282H62.6022ZM104.227 28.6853C103.173 30.4677 100.86 31.4441 98.6481 31.4441C94.2935 31.4441 90.5845 28.2135 90.5845 23.2347C90.5845 18.2213 94.2935 15.0589 98.6481 15.0589C100.86 15.0589 103.173 15.9672 104.227 17.7508V16.7744C104.227 15.9335 104.908 15.2269 105.759 15.2269C106.643 15.2269 107.324 15.9335 107.324 16.7744V29.7282C107.324 30.5691 106.643 31.2757 105.759 31.2757C104.908 31.2757 104.227 30.5691 104.227 29.7282V28.6853ZM98.9204 18.053C96.0626 18.053 93.7491 20.0714 93.7491 23.2006C93.7491 26.2952 96.0626 28.4488 98.9204 28.4488C101.744 28.4488 104.194 26.5309 104.194 23.2006C104.194 19.8358 101.472 18.053 98.9204 18.053ZM123.943 28.6853C122.889 30.4677 120.575 31.4441 118.364 31.4441C114.009 31.4441 110.3 28.2135 110.3 23.2347C110.3 18.2213 114.009 15.0589 118.364 15.0589C120.575 15.0589 122.889 15.9672 123.943 17.7508V16.7744C123.943 15.9335 124.624 15.2269 125.474 15.2269C126.359 15.2269 127.039 15.9335 127.039 16.7744V29.7282C127.039 30.5691 126.359 31.2757 125.474 31.2757C124.623 31.2757 123.943 30.5691 123.943 29.7282V28.6853ZM118.636 18.053C115.778 18.053 113.465 20.0714 113.465 23.2006C113.465 26.2952 115.778 28.4488 118.636 28.4488C121.46 28.4488 123.91 26.5309 123.91 23.2006C123.91 19.8358 121.188 18.053 118.636 18.053ZM144.333 17.2117C144.605 16.4714 144.231 15.4962 143.38 15.2938C142.564 15.0581 141.815 15.4625 141.475 16.3034L137.051 27.5073L132.595 16.3034C132.255 15.4625 131.506 15.0585 130.69 15.2938C129.839 15.4962 129.431 16.4714 129.703 17.2117L135.011 29.8284C135.419 30.7366 136.066 31.2753 136.984 31.2753H137.154C138.072 31.2753 138.685 30.7366 139.059 29.8284L144.333 17.2117ZM149.981 16.2698C149.64 15.4289 148.858 15.0585 148.007 15.2938C147.191 15.5299 146.816 16.505 147.089 17.279L152.668 30.636L150.151 36.7588C149.844 37.5327 150.151 38.4073 150.899 38.744C151.716 39.0462 152.601 38.6767 152.907 37.9023L161.617 17.3123C161.957 16.5383 161.617 15.6301 160.8 15.327C160.018 15.024 159.099 15.3944 158.793 16.1679L154.37 26.7666L149.981 16.2694L149.981 16.2698ZM165.252 15.3648C165.296 15.4063 165.319 15.4609 165.319 15.5291C165.319 15.5976 165.296 15.6518 165.252 15.6916C165.206 15.7327 165.148 15.7524 165.077 15.7524H164.454V17.8066C164.454 17.8744 164.43 17.9318 164.379 17.9774C164.329 18.023 164.267 18.046 164.193 18.046C164.119 18.046 164.059 18.023 164.011 17.9774C163.963 17.9318 163.939 17.8748 163.939 17.8066V15.7524H163.317C163.245 15.7524 163.188 15.7319 163.143 15.69C163.098 15.6485 163.075 15.5939 163.075 15.5254C163.075 15.4601 163.098 15.4067 163.145 15.3652C163.191 15.3229 163.248 15.302 163.317 15.302H165.077C165.148 15.302 165.206 15.3225 165.252 15.3648ZM168.313 15.3669C168.363 15.4124 168.387 15.4691 168.387 15.5369V17.8066C168.387 17.8744 168.365 17.9318 168.32 17.9774C168.275 18.023 168.216 18.046 168.141 18.046C168.067 18.046 168.007 18.0234 167.961 17.9795C167.914 17.9351 167.891 17.8772 167.891 17.8066V16.2271L167.237 17.215C167.211 17.2466 167.181 17.2716 167.147 17.2913C167.112 17.311 167.076 17.3197 167.039 17.3172C167.005 17.3197 166.971 17.3114 166.936 17.2913C166.902 17.2716 166.871 17.2466 166.846 17.215L166.191 16.1922V17.8066C166.191 17.8772 166.17 17.9351 166.128 17.9795C166.085 18.0238 166.03 18.046 165.962 18.046C165.896 18.046 165.842 18.023 165.799 17.9774C165.757 17.9318 165.736 17.8748 165.736 17.8066V15.5369C165.736 15.4716 165.76 15.4157 165.809 15.3689C165.858 15.3213 165.917 15.2979 165.986 15.2979C166.025 15.2979 166.065 15.3077 166.104 15.3275C166.144 15.3472 166.175 15.3722 166.196 15.4038L167.06 16.7173L167.948 15.4038C167.969 15.3722 167.997 15.3472 168.033 15.3275C168.069 15.3077 168.105 15.2979 168.142 15.2979C168.208 15.2979 168.266 15.3209 168.314 15.3673L168.313 15.3669Z" fill="var(--fill-0, #0074AD)"/>
<path id="Vector_2" d="M23.2061 28.916C21.9165 28.916 20.8985 29.9359 20.9213 31.1858C21.1625 33.0154 21.2858 33.9146 21.5254 35.6645C21.7085 37.0023 21.7994 37.6596 21.9763 38.9411C21.7206 39.1558 21.5943 39.2613 21.3452 39.4712C19.4195 41.0848 18.5435 41.8193 17.0707 43.0183C16.5202 43.6395 16.8191 44.7703 17.6192 45.5861C18.4189 46.4024 19.4287 46.5748 19.9966 45.9363C20.6132 45.0101 20.9608 44.5091 21.7185 43.4535C22.3131 42.6249 22.6311 42.1905 23.3012 41.2962C23.9016 41.993 24.1927 42.3322 24.7415 42.9846C25.7218 44.1458 26.1702 44.6927 26.9599 45.6842C27.5831 46.2706 28.6145 46.0197 29.3863 45.1624C30.1599 44.3047 30.3795 43.1804 29.76 42.6064C28.1379 41.5221 27.1912 40.8479 25.1285 39.3574C24.8777 39.1763 24.7511 39.0848 24.4945 38.8984C24.688 37.426 24.7901 36.6701 24.9936 35.1258C25.1974 33.5841 25.302 32.7957 25.5088 31.1932C25.5279 29.9425 24.5016 28.9185 23.2099 28.9169H23.2061V28.916ZM27.3797 27.3718C26.4683 28.273 26.4692 29.7212 27.349 30.5818C28.7843 31.6925 29.4773 32.2275 30.7835 33.2199C31.782 33.9791 32.2612 34.3391 33.1659 35.0084C33.0999 35.3439 33.0671 35.5114 32.9994 35.8436C32.4746 38.4114 32.1761 39.6502 31.5421 41.991C31.3772 42.9879 31.9942 43.5389 32.918 43.2096C33.841 42.8803 34.8072 41.8497 35.0712 40.916C35.2714 39.7705 35.3478 39.1681 35.4511 37.9146C35.5325 36.9308 35.5575 36.4225 35.5811 35.3779C36.4622 35.2991 36.894 35.2494 37.7393 35.1357C39.2428 34.9329 39.9664 34.8052 41.3424 34.4956C42.316 34.1786 43.3254 33.1956 43.5774 32.2882C43.8319 31.38 43.1822 30.8072 42.1487 31.0277C39.7443 31.7861 38.4784 32.1601 35.8734 32.8458C35.5566 32.93 35.3976 32.971 35.0787 33.0523C34.3011 32.0242 33.8771 31.4757 32.9815 30.3281C32.088 29.1825 31.6131 28.581 30.6299 27.3398C30.1981 26.9099 29.6205 26.6931 29.0364 26.6931C28.4418 26.6931 27.8406 26.9177 27.3801 27.3718M15.9186 27.045C14.7955 28.4623 14.2553 29.148 13.2509 30.4397C12.4832 31.4276 12.1191 31.901 11.4423 32.7965C11.1027 32.7313 10.9341 32.6988 10.5986 32.6311C8.00198 32.1141 6.74934 31.8177 4.38229 31.1899C3.37378 31.0269 2.81657 31.6379 3.14998 32.5506C3.48297 33.4642 4.52512 34.4188 5.46887 34.6803C6.62769 34.8791 7.2372 34.9538 8.50397 35.056C9.49961 35.1357 10.0132 35.1612 11.0691 35.1846C11.1496 36.0558 11.1994 36.4837 11.3144 37.3188C11.5191 38.8056 11.6487 39.5204 11.9617 40.8828C12.2823 41.844 13.2754 42.8421 14.1938 43.093C15.1118 43.3439 15.6915 42.7017 15.4685 41.6793C14.7016 39.3008 14.3226 38.0501 13.6292 35.4732C13.5449 35.1607 13.5038 35.0035 13.4203 34.6881C14.46 33.9191 15.0155 33.4991 16.1752 32.6147C17.3336 31.7302 17.9427 31.2597 19.1962 30.2882C20.0751 29.4268 20.0751 27.9766 19.1646 27.0745C18.705 26.6208 18.1054 26.3946 17.5117 26.3946C16.9283 26.3946 16.35 26.6126 15.9186 27.045ZM0.74599 17.4219C-0.078594 18.2127 -0.253404 19.2104 0.391814 19.7738C1.3285 20.3827 1.83505 20.7272 2.90335 21.4761C3.74122 22.064 4.1805 22.3794 5.08438 23.0413C4.37979 23.635 4.03767 23.922 3.37709 24.4664C2.20291 25.4342 1.65072 25.8781 0.647182 26.6586C0.0542794 27.2757 0.308359 28.2948 1.17571 29.0597C2.04306 29.8239 3.17904 30.0406 3.76074 29.428C4.85686 27.8238 5.53861 26.8885 7.04578 24.8479C7.22971 24.5999 7.32232 24.4751 7.50999 24.2217C8.99889 24.4139 9.7641 24.5132 11.3257 24.7152C12.8843 24.9169 13.6819 25.0203 15.302 25.2248C16.5667 25.2437 17.6022 24.2279 17.6047 22.9505C17.6055 21.6732 16.5733 20.6656 15.3095 20.6882C13.4594 20.9267 12.5501 21.0482 10.7797 21.2856C9.42696 21.4675 8.76305 21.5574 7.46597 21.7323C7.24965 21.4785 7.14254 21.3537 6.93162 21.1074C5.29906 19.203 4.55626 18.3367 3.34306 16.8803C3.12383 16.6902 2.8415 16.6027 2.53217 16.6027C1.95588 16.6019 1.28449 16.9074 0.746395 17.4227M43.0842 16.8951C41.9889 18.4993 41.3071 19.4354 39.7999 21.4753C39.6168 21.7233 39.5234 21.8485 39.3353 22.1022C37.8473 21.9101 37.0825 21.8099 35.5205 21.6087C33.9619 21.4063 33.1643 21.3036 31.5437 21.0992C30.2786 21.0803 29.244 22.0953 29.2419 23.3726C29.2402 24.6508 30.2724 25.6576 31.5371 25.635C33.388 25.3964 34.2965 25.2753 36.0661 25.0376C37.4192 24.8569 38.0827 24.767 39.3802 24.5917C39.5973 24.8454 39.7036 24.9702 39.9154 25.2166C41.5463 27.1209 42.2899 27.9864 43.5039 29.4436C44.1309 29.9881 45.2735 29.6925 46.0985 28.9012C46.9239 28.1096 47.0991 27.1123 46.4539 26.5494C45.5164 25.9405 45.0099 25.596 43.9415 24.847C43.1045 24.2583 42.666 23.9437 41.7613 23.281C42.4651 22.6873 42.8081 22.4003 43.4678 21.8567C44.642 20.8889 45.1942 20.4447 46.1977 19.6637C46.7906 19.0474 46.5378 18.0275 45.67 17.2634C45.1464 16.8015 44.5237 16.5399 43.9847 16.5399C43.6314 16.5399 43.3146 16.6524 43.0846 16.8943M31.3768 4.6434C32.1429 7.02197 32.5219 8.27304 33.2153 10.8495C33.2996 11.1628 33.342 11.3201 33.4242 11.6346C32.3853 12.4036 31.8298 12.8228 30.6693 13.7085C29.5109 14.5921 28.9027 15.0618 27.6483 16.0341C26.7702 16.8955 26.7694 18.3465 27.6799 19.2478C28.5913 20.1495 30.0565 20.1482 30.9267 19.2782C32.049 17.86 32.59 17.1743 33.5944 15.8817C34.3613 14.8951 34.7254 14.4204 35.4022 13.5258C35.7418 13.591 35.9104 13.6235 36.2467 13.6912C38.8425 14.209 40.0951 14.5046 42.4626 15.1324C43.4715 15.2946 44.0283 14.6845 43.6958 13.7717C43.3628 12.8581 42.3206 11.9027 41.3756 11.642C40.2181 11.4432 39.6089 11.3693 38.3413 11.2671C37.3465 11.1866 36.8325 11.1612 35.7763 11.1382C35.6957 10.2669 35.6463 9.83987 35.5313 9.00472C35.3262 7.51714 35.1971 6.8023 34.8832 5.44077C34.5635 4.47793 33.5695 3.4806 32.6511 3.23055C32.517 3.19359 32.3895 3.17635 32.2707 3.17635C31.5811 3.17635 31.1867 3.77171 31.3772 4.64381M13.9269 3.11394C13.0039 3.44323 12.0386 4.473 11.7745 5.40833C11.5727 6.55307 11.4979 7.15541 11.3946 8.40895C11.3132 9.39273 11.2875 9.90105 11.2642 10.9456C10.384 11.0253 9.95135 11.0741 9.10601 11.1878C7.60258 11.3903 6.8797 11.5184 5.5029 11.8288C4.53009 12.1441 3.52077 13.1279 3.26708 14.0353C3.01423 14.9431 3.66235 15.5163 4.69744 15.2958C7.10185 14.5383 8.36738 14.1626 10.9719 13.4769C11.2887 13.3936 11.4477 13.3521 11.7674 13.2712C12.5451 14.2985 12.969 14.8479 13.8642 15.9947C14.7577 17.1406 15.2327 17.7426 16.2167 18.983C17.0878 19.8514 18.5547 19.8522 19.4656 18.9509C20.3782 18.0505 20.3761 16.6015 19.4963 15.7409C18.0622 14.6303 17.3689 14.0961 16.0627 13.1029C15.0641 12.3445 14.5845 11.9836 13.6802 11.3143C13.7462 10.9793 13.7791 10.8126 13.8476 10.48C14.3711 7.91295 14.6692 6.67419 15.3041 4.3334C15.4369 3.53069 15.0637 3.01827 14.433 3.01827C14.279 3.01827 14.1091 3.04865 13.9273 3.11394M26.8487 0.386779C26.2329 1.31308 25.8854 1.814 25.1272 2.87046C24.5327 3.69903 24.2138 4.1318 23.5445 5.0273C22.9441 4.33053 22.6531 3.9922 22.1034 3.33977C21.1239 2.17779 20.6755 1.6317 19.8858 0.640115C19.2626 0.0537877 18.2312 0.303839 17.4586 1.16116C16.6859 2.01889 16.4666 3.14391 17.0861 3.71874C18.7083 4.80189 19.6541 5.47608 21.7168 6.96654C21.9684 7.14761 22.0942 7.23917 22.3508 7.42558C22.1565 8.89797 22.0552 9.65387 21.8509 11.1981C21.6471 12.7399 21.5429 13.5282 21.3361 15.1308C21.317 16.3818 22.3442 17.4055 23.6359 17.4071C24.9275 17.4087 25.9473 16.3884 25.9236 15.1382C25.6824 13.3077 25.5591 12.4094 25.3195 10.6586C25.1356 9.32088 25.0446 8.66516 24.8677 7.38206C25.1235 7.16732 25.2497 7.06179 25.4997 6.8528C27.4254 5.23917 28.3014 4.50462 29.7742 3.30404C30.3247 2.68364 30.0249 1.5541 29.2257 0.737836C28.7544 0.257031 28.2105 0 27.7272 0C27.3893 0 27.0812 0.12482 26.8474 0.387189" fill="url(#paint0_radial_20023_8751)"/>
</g>
<defs>
<radialGradient id="paint0_radial_20023_8751" cx="0" cy="0" r="1" gradientUnits="userSpaceOnUse" gradientTransform="translate(27.9049 19.8756) scale(29.0041 28.6824)">
<stop stop-color="#FEE886"/>
<stop offset="0.5" stop-color="#E053A6"/>
<stop offset="1" stop-color="#0D7BB1"/>
</radialGradient>
</defs>
</svg>
