<svg preserveAspectRatio="none" width="100%" height="100%" overflow="visible" style="display: block;" viewBox="0 0 35.9174 35.9174" fill="none" xmlns="http://www.w3.org/2000/svg">
<path id="Vector" d="M21.0424 1C24.7223 1 28.2514 2.46183 30.8535 5.06389C33.4556 7.66596 34.9174 11.1951 34.9174 14.875M21.0424 7.16667C23.0868 7.16667 25.0474 7.97879 26.493 9.42438C27.9386 10.87 28.7507 12.8306 28.7507 14.875M21.5172 22.8778L18.2165 26.1292C16.4954 25.0905 14.8965 23.8618 13.4497 22.4662C12.0567 21.0186 10.8287 19.4209 9.78823 17.7024L13.0411 14.4017C13.2364 14.2021 13.3682 13.9493 13.42 13.6749C13.4719 13.4006 13.4414 13.1171 13.3325 12.86L9.94239 4.94667C9.8084 4.63494 9.56688 4.38173 9.26183 4.23316C8.95678 4.0846 8.60851 4.05058 8.28048 4.13729L2.06139 5.77917C1.75003 5.85985 1.47538 6.04408 1.28262 6.30157C1.08985 6.55906 0.990441 6.87447 1.00073 7.19596C1.3968 14.4286 4.40422 21.2717 9.46448 26.4545C14.6491 31.5155 21.4946 34.5225 28.7291 34.9167C29.0502 34.9268 29.3652 34.8273 29.6222 34.6345C29.8791 34.4417 30.0628 34.1671 30.1429 33.856L31.7863 27.6338C31.8734 27.306 31.8398 26.9577 31.6915 26.6526C31.5432 26.3475 31.2901 26.1059 30.9784 25.9719L23.0712 22.5833C22.8124 22.4719 22.5261 22.4404 22.2492 22.4929C21.9723 22.5454 21.7174 22.6794 21.5172 22.8778Z" stroke="var(--stroke-0, #EB1700)" stroke-width="2" stroke-miterlimit="10" stroke-linecap="round"/>
</svg>
