<svg width="51" height="51" viewBox="0 0 51 51" fill="none" xmlns="http://www.w3.org/2000/svg">
<path d="M35.5691 46.6068C33.6945 47.0597 31.8679 47.5009 29.9828 47.7109C28.4272 47.8969 26.8619 47.9908 25.2953 47.9922C24.7744 47.9922 24.2536 47.9575 23.7328 47.9227C23.4725 47.9054 23.2118 47.888 22.9515 47.875C22.4419 47.8495 21.9324 47.7609 21.4337 47.6741C21.1678 47.6279 20.9049 47.5822 20.6468 47.5469C17.5888 46.9479 14.6872 45.7244 12.1234 43.9531C9.55918 42.1948 7.38033 39.9323 5.71991 37.3037C4.05948 34.675 2.95235 31.7355 2.46613 28.6646C1.97991 25.5938 2.1248 22.456 2.89197 19.443C3.65913 16.43 5.03246 13.605 6.92808 11.1406C8.82325 8.68307 11.1864 6.62524 13.8812 5.08593C16.5863 3.56179 19.5747 2.60732 22.6625 2.28124C25.7429 1.9514 28.8581 2.23823 31.8265 3.12499C36.3113 4.51209 40.2634 7.24009 43.1506 10.9416C46.0378 14.6432 47.7215 19.1405 47.975 23.8281C48.3301 30.1549 46.1995 36.3702 42.0375 41.1484L42.8187 41.9297C44.051 40.7764 45.1515 39.4899 46.1 38.0937C47.0297 36.6924 47.8149 35.2004 48.4437 33.6406C49.6695 30.4862 50.2024 27.1051 50.0062 23.7266C49.7454 18.6153 47.9221 13.7073 44.7828 9.66543C41.6434 5.62353 37.3392 2.6425 32.4515 1.12499C29.2026 0.125706 25.7863 -0.211679 22.4046 0.132801C17.3082 0.664762 12.4983 2.74994 8.62613 6.10602C4.75398 9.4621 2.00662 13.927 0.756015 18.8962C-0.494594 23.8654 -0.188043 29.0988 1.63416 33.888C3.45637 38.6772 6.70621 42.7908 10.9437 45.6719C13.743 47.6011 16.9108 48.931 20.2484 49.5781C20.5246 49.6168 20.8008 49.6607 21.0773 49.7046C21.6376 49.7935 22.1991 49.8826 22.764 49.9297C23.6078 50 24.4515 50.0312 25.2875 50.0312C26.9527 50.0027 28.6147 49.8722 30.264 49.6406C31.9049 49.4011 33.5301 49.0645 35.1312 48.6328C35.5908 48.5064 36.0503 48.3733 36.5099 48.2401C37.6128 47.9206 38.7158 47.6011 39.8187 47.375C41.3003 47.0228 42.8404 46.9935 44.3343 47.2891C45.8491 47.6564 47.3039 48.2378 48.6546 49.0156L49.2015 48.1406C47.8098 47.1807 46.279 46.4403 44.6625 45.9453C42.9661 45.4829 41.1866 45.4134 39.4593 45.7422C38.119 45.9907 36.833 46.3014 35.5691 46.6068Z" fill="#0074AD"/>
<path d="M25.7875 18.75C25.7875 18.3185 25.4377 17.9687 25.0062 17.9687C24.5747 17.9687 24.225 18.3185 24.225 18.75V25C24.225 25.2926 24.3885 25.5607 24.6487 25.6947C24.9089 25.8286 25.2222 25.8058 25.4603 25.6357L30.929 21.7295C31.2801 21.4787 31.3615 20.9907 31.1107 20.6396C30.8599 20.2885 30.372 20.2072 30.0209 20.458L25.7875 23.4819V18.75Z" fill="#0074AD"/>
<path fill-rule="evenodd" clip-rule="evenodd" d="M14.8991 16.3833L16.0844 9.61702C16.3463 8.12193 17.6447 7.03124 19.1626 7.03124H30.8498C32.3677 7.03124 33.6661 8.12193 33.928 9.61702L35.1133 16.3834C37.0925 18.7028 38.2875 21.7119 38.2875 25C38.2875 28.2881 37.0925 31.2972 35.1133 33.6166L33.928 40.383C33.6661 41.878 32.3677 42.9687 30.8498 42.9687H19.1626C17.6447 42.9687 16.3463 41.878 16.0844 40.383L14.8992 33.6168C12.9198 31.2973 11.7249 28.2882 11.7249 25C11.7249 21.7119 12.9198 18.7028 14.8991 16.3833ZM19.1626 8.59374C18.4036 8.59374 17.7545 9.13908 17.6235 9.88663L16.8063 14.5516C17.0886 14.3298 17.38 14.1192 17.68 13.9204C18.2522 13.5413 18.8554 13.2054 19.485 12.9172C21.1664 12.1476 23.0362 11.7187 25.0062 11.7187C28.1008 11.7187 30.9481 12.7771 33.2061 14.5516L32.3889 9.88663C32.2579 9.13908 31.6088 8.59374 30.8498 8.59374H19.1626ZM16.8063 35.4485L17.6235 40.1133C17.7545 40.8609 18.4036 41.4062 19.1626 41.4062H30.8498C31.6088 41.4062 32.2579 40.8609 32.3889 40.1133L33.2061 35.4484C32.0771 36.3356 30.8008 37.0438 29.4199 37.5302C28.0389 38.0167 26.5534 38.2813 25.0061 38.2813C21.9116 38.2813 19.0643 37.223 16.8063 35.4485ZM16.2301 17.2339C16.2218 17.2438 16.2133 17.2534 16.2045 17.2629C14.3887 19.3269 13.2875 22.0348 13.2875 25C13.2875 27.9651 14.3887 30.6731 16.2045 32.7371C16.2133 32.7465 16.2218 32.7562 16.2301 32.7661C18.3771 35.1905 21.5132 36.7187 25.0062 36.7187C26.3161 36.7187 27.5758 36.5038 28.7519 36.1073C30.2435 35.6045 31.6007 34.8097 32.7556 33.7908C33.1189 33.4704 33.4621 33.1277 33.7831 32.7651C33.7909 32.7559 33.7988 32.7469 33.8069 32.7381C35.6233 30.674 36.7249 27.9656 36.7249 25C36.7249 22.0332 35.6223 19.3238 33.8046 17.2593C33.7981 17.2522 33.7917 17.245 33.7854 17.2376C31.6384 14.8111 28.5009 13.2813 25.0061 13.2813C23.2596 13.2813 21.6024 13.6633 20.1134 14.3484C19.4034 14.6751 18.7317 15.0706 18.1068 15.5265C17.4211 16.0268 16.7918 16.5997 16.2301 17.2339Z" fill="#0074AD"/>
</svg>
